<?xml version="1.0" standalone="no"?>
<!DOCTYPE svg PUBLIC "-//W3C//DTD SVG 20010904//EN"
 "http://www.w3.org/TR/2001/REC-SVG-20010904/DTD/svg10.dtd">
<svg version="1.0" xmlns="http://www.w3.org/2000/svg"
 width="420.000000pt" height="140.000000pt" viewBox="40 180 420 140"
 preserveAspectRatio="xMidYMid meet">

<g transform="translate(0.000000,500.000000) scale(0.100000,-0.100000)"
fill="#000000" stroke="none">
<path d="M1926 3095 c-67 -24 -146 -86 -203 -160 -34 -45 -86 -138 -144 -260
-50 -104 -120 -250 -155 -324 -35 -73 -64 -135 -64 -137 0 -2 49 -4 108 -4
l109 0 43 105 43 106 85 -3 85 -3 -2 -102 -2 -103 111 0 111 0 -5 58 c-3 31
-13 228 -22 437 -8 209 -17 386 -19 393 -5 15 -30 15 -79 -3z m-86 -390 l0
-115 -50 0 c-27 0 -50 2 -50 5 0 5 46 122 74 188 9 20 18 37 21 37 3 0 5 -52
5 -115z"/>
<path d="M2629 3025 c-97 -67 -107 -77 -113 -112 -4 -21 -12 -53 -17 -70 l-10
-33 -37 25 c-71 48 -196 26 -257 -46 -92 -110 -151 -406 -100 -512 47 -100
170 -111 275 -25 l35 29 3 -36 3 -35 85 0 84 0 0 43 c0 23 6 78 14 122 15 84
142 677 152 708 3 9 2 17 -3 17 -4 -1 -56 -34 -114 -75z m-184 -329 c19 -13
18 -18 -13 -162 -21 -98 -38 -154 -50 -167 -22 -22 -80 -26 -93 -6 -28 44 21
278 68 332 19 20 62 22 88 3z"/>
<path d="M696 2875 c-34 -44 -117 -92 -173 -101 -23 -3 -46 -11 -51 -18 -12
-16 -53 -157 -47 -166 2 -3 32 -8 67 -9 34 -1 64 -3 65 -5 3 -3 -15 -98 -53
-271 -43 -203 -43 -196 8 -247 29 -30 59 -49 91 -57 26 -8 49 -12 52 -10 2 2
18 67 36 144 17 77 65 276 105 442 41 166 74 309 74 317 0 13 -13 16 -74 16
-72 0 -74 -1 -100 -35z"/>
<path d="M995 2858 c-7 -21 -98 -400 -103 -430 -5 -32 -3 -33 62 -13 97 29
171 13 201 -45 41 -80 -10 -185 -103 -209 -29 -8 -48 -48 -59 -130 l-6 -44 54
7 c110 15 224 97 276 199 48 94 42 231 -12 296 -34 40 -119 81 -168 81 -39 0
-39 0 -33 33 4 17 10 47 13 65 l6 32 98 0 c55 0 99 4 99 8 0 4 25 38 55 75 30
36 55 71 55 77 0 16 -429 14 -435 -2z"/>
<path d="M2845 2841 c-96 -43 -170 -201 -182 -387 -8 -126 1 -176 40 -217 58
-61 145 -58 232 8 25 19 47 35 50 35 3 0 5 -16 5 -35 l0 -35 85 0 85 0 0 56
c0 31 23 169 51 307 28 139 52 257 52 262 1 6 -31 11 -75 13 l-77 3 -16 -31
-16 -31 -40 35 c-35 33 -45 36 -97 36 -34 0 -74 -8 -97 -19z m179 -146 c17
-13 17 -17 3 -77 -9 -35 -23 -101 -32 -148 -18 -96 -37 -120 -91 -120 -28 0
-35 4 -40 25 -14 55 38 286 72 320 19 19 63 19 88 0z"/>
<path d="M3610 2844 c-19 -8 -49 -26 -66 -39 -18 -14 -35 -25 -38 -25 -2 0 -6
15 -8 33 l-3 32 -80 0 -80 0 -7 -67 c-3 -37 -14 -100 -23 -140 -9 -40 -20 -93
-25 -118 -5 -25 -21 -99 -35 -165 -14 -66 -25 -125 -25 -132 0 -10 25 -13 95
-13 90 0 95 1 99 23 3 12 25 114 48 227 48 228 55 243 116 238 l37 -3 0 -55
c-1 -48 -25 -178 -70 -372 l-13 -58 99 0 c54 0 99 2 99 4 0 6 77 373 89 426
22 95 2 179 -50 205 -36 19 -114 19 -159 -1z"/>
<path d="M4020 2844 c-106 -46 -176 -194 -187 -395 -7 -131 0 -170 38 -213 53
-61 146 -57 233 9 24 18 47 31 50 28 3 -4 6 -19 6 -35 l0 -28 85 0 85 0 0 68
c0 42 18 152 50 301 28 128 50 239 50 247 0 11 -18 14 -78 14 -75 0 -79 -1
-91 -26 l-12 -27 -27 25 c-15 14 -37 31 -49 37 -31 16 -111 13 -153 -5z m168
-151 c20 -17 20 -21 8 -73 -8 -30 -19 -82 -26 -115 -27 -132 -29 -136 -66
-151 -74 -31 -89 12 -60 166 19 96 42 162 63 178 24 17 57 15 81 -5z"/>
<path d="M785 2138 c-26 -113 -35 -154 -35 -160 0 -5 36 -8 79 -8 l80 0 11 58
c6 31 15 70 21 86 5 16 9 33 9 37 0 5 -36 9 -80 9 -74 0 -80 -1 -85 -22z"/>
</g>
</svg>
